<svg xmlns="http://www.w3.org/2000/svg" width="109.238" height="113.331" viewBox="0 0 109.238 113.331"><defs><style>.a{fill:#ededed;}.b{fill:#272880;}.c{fill:#6dd08b;}.d{fill:#f0eff9;}.e{fill:none;stroke:#fff;stroke-linecap:round;stroke-linejoin:round;stroke-width:4px;fill-rule:evenodd;}</style></defs><g transform="translate(-245.843 -155.5)"><ellipse class="a" cx="40.945" cy="2.433" rx="40.945" ry="2.433" transform="translate(269.21 261.451)"/><path class="b" d="M31.589,2.521c1.246-1.456,8.089-4.86,13.021,0L76.2,33.3c.023.026-1.829-.028-1.847,0H2.794C.063,33.3.051,33.227,0,33.3Z" transform="matrix(0.883, -0.469, 0.469, 0.883, 245.843, 191.274)"/><g transform="matrix(0.883, -0.469, 0.469, 0.883, 260.426, 220.729)"><rect class="b" width="78.237" height="50.945" rx="3" transform="translate(0 0)"/></g><path class="c" d="M2.729,0H54.688a2.834,2.834,0,0,1,2.729,2.929V50.762a2.834,2.834,0,0,1-2.729,2.929H2.729A2.834,2.834,0,0,1,0,50.762V2.929A2.834,2.834,0,0,1,2.729,0Z" transform="matrix(0.883, -0.469, 0.469, 0.883, 258.086, 194.154)"/><path class="d" d="M26.858,2.426a3,3,0,0,1,4.431,0L53.561,26.818a3,3,0,0,1-2.215,5.023H6.8a3,3,0,0,1-2.215-5.023Z" transform="matrix(0.469, 0.883, -0.883, 0.469, 286.818, 202.542)"/><path class="d" d="M27.766,2.053c1.053-1.185,6.834-3.958,11,0L66.135,27.171c.02.021-1.545-.023-1.561,0L2.349,27.144c-2.308,0-2.305-.021-2.349.039Z" transform="matrix(0.883, -0.469, 0.469, 0.883, 276.976, 238.892)"/><path class="d" d="M26.858,2.426a3,3,0,0,1,4.431,0L53.561,26.818a3,3,0,0,1-2.215,5.023H6.8a3,3,0,0,1-2.215-5.023Z" transform="matrix(-0.469, -0.883, 0.883, -0.469, 326.968, 247.049)"/><g transform="matrix(0.883, -0.469, 0.469, 0.883, 282.987, 198.533)"><path class="e" d="M0,7.538l6.574,7.538L20.663,0" transform="translate(0 0)"/></g></g></svg>